<?xml version="1.0" encoding="UTF-8"?>
<svg version="1.1" xmlns="http://www.w3.org/2000/svg" width="500" height="500">
<path d="M0 0 C13.61818596 11.78131436 13.61818596 11.78131436 17.51953125 17.1796875 C17.51953125 17.8396875 17.51953125 18.4996875 17.51953125 19.1796875 C18.17953125 19.1796875 18.83953125 19.1796875 19.51953125 19.1796875 C29.57728581 36.53229567 41.00411905 56.39545835 39.51953125 77.1796875 C40.28394531 77.19386719 41.04835938 77.20804687 41.8359375 77.22265625 C62.10513297 78.12513547 82.51634377 88.01371604 96.26953125 102.9921875 C98.77630629 105.89677684 100.23229452 108.5640667 101.51953125 112.1796875 C102.17953125 112.1796875 102.83953125 112.1796875 103.51953125 112.1796875 C114.48735724 133.92899292 120.27277359 155.60680925 113.515625 179.76953125 C109.52357424 191.69298319 103.80874727 202.69071653 95.51953125 212.1796875 C94.97296875 212.83195313 94.42640625 213.48421875 93.86328125 214.15625 C80.75260945 228.58948957 59.93043912 237.28722106 40.67947388 238.33413696 C32.98038481 238.54812638 25.28245736 238.45399131 17.58203125 238.3671875 C15.2415451 238.35210851 12.90104952 238.33842582 10.56054688 238.32617188 C4.87999929 238.29343282 -0.8001895 238.24349027 -6.48046875 238.1796875 C-5.76309085 232.94252097 -4.68816759 228.08586356 -3.19921875 223.0234375 C0.73269591 207.46673168 0.00836533 188.53354044 -4.48046875 173.1796875 C-4.67382812 172.51598145 -4.8671875 171.85227539 -5.06640625 171.16845703 C-9.60868252 156.02403128 -16.78014689 141.91979329 -27.48046875 130.1796875 C-27.91198242 129.7057959 -28.34349609 129.2319043 -28.78808594 128.74365234 C-47.24361727 108.74052774 -71.66730167 96.26167104 -98.98876953 95.0703125 C-130.49935067 94.13092495 -157.0639034 101.77177559 -180.38378906 123.6315918 C-201.22554024 143.86305626 -212.99789742 171.3426896 -213.51953125 200.35205078 C-213.48422555 210.04125838 -211.8636826 219.12025563 -209.41796875 228.47265625 C-208.59959481 231.70864321 -208.00544619 234.88725434 -207.48046875 238.1796875 C-215.00191408 238.28226614 -222.52317492 238.35164022 -230.04516602 238.39941406 C-232.59666687 238.41935897 -235.14812305 238.44652479 -237.69946289 238.48144531 C-261.99202198 238.8052826 -283.48253897 237.07493379 -302.48046875 220.1796875 C-303.49173828 219.32503906 -303.49173828 219.32503906 -304.5234375 218.453125 C-317.1380415 206.98530318 -323.96771985 188.88028444 -325.48046875 172.1796875 C-326.20985039 150.8083288 -319.00446762 132.73558682 -304.48046875 117.1796875 C-294.51390813 106.70955329 -278.06624787 97.64232389 -263.40161133 97.10327148 C-260.98953003 97.08144156 -258.58001003 97.09243885 -256.16796875 97.1171875 C-255.33201172 97.12169922 -254.49605469 97.12621094 -253.63476562 97.13085938 C-251.58330226 97.14258202 -249.53187602 97.16051547 -247.48046875 97.1796875 C-247.42741577 96.19790527 -247.42741577 96.19790527 -247.37329102 95.19628906 C-246.71120916 84.39926187 -242.87250115 75.78972021 -236.48046875 67.1796875 C-235.86171875 66.2928125 -235.24296875 65.4059375 -234.60546875 64.4921875 C-228.89837245 58.28152388 -222.4088993 54.8438451 -214.48046875 52.1796875 C-213.26359375 51.7671875 -212.04671875 51.3546875 -210.79296875 50.9296875 C-199.12574935 48.34740554 -186.19029873 49.82477251 -175.48046875 55.1796875 C-175.19550537 54.39658203 -175.19550537 54.39658203 -174.90478516 53.59765625 C-168.27073083 35.61287276 -160.15732563 20.70200363 -146.48046875 7.1796875 C-145.6296875 6.31859375 -144.77890625 5.4575 -143.90234375 4.5703125 C-104.76600797 -33.15992738 -41.49169506 -34.45352384 0 0 Z " fill="#3EA3DA" transform="translate(354.48046875,112.8203125)"/>
<path d="M0 0 C10.87816837 9.44528257 18.96238036 18.50100865 25.1875 31.5625 C25.63480469 32.46484375 26.08210937 33.3671875 26.54296875 34.296875 C37.33679186 56.74802708 38.66515082 83.39459447 31.06054688 107.07763672 C21.88790621 133.18477786 4.02851855 153.09715134 -20.8125 165.5625 C-44.6163505 176.49905756 -71.33226463 177.8969405 -96 168.875 C-108.30117828 164.09405455 -118.99095257 157.4120479 -128.8125 148.5625 C-129.71613281 147.77617187 -130.61976563 146.98984375 -131.55078125 146.1796875 C-146.4646244 132.38385522 -157.74056273 110.92668344 -159.8125 90.5625 C-159.87663086 89.94117188 -159.94076172 89.31984375 -160.00683594 88.6796875 C-162.61182927 61.65755574 -156.27376503 35.06700757 -138.76953125 13.76953125 C-102.9992235 -26.57023697 -42.60870384 -35.99356852 0 0 Z M-54.8125 22.5625 C-56.13479189 25.20708379 -55.90927194 27.24011301 -55.875 30.1875 C-55.86597656 31.19039063 -55.85695313 32.19328125 -55.84765625 33.2265625 C-55.83605469 33.99742187 -55.82445312 34.76828125 -55.8125 35.5625 C-57.05158615 35.54917633 -57.05158615 35.54917633 -58.31570435 35.5355835 C-66.11333404 35.45532334 -73.91082432 35.39447771 -81.70877266 35.35525131 C-85.71748652 35.3344063 -89.72585811 35.30614594 -93.734375 35.26074219 C-97.60529809 35.21717301 -101.47589265 35.19333968 -105.34704208 35.18299103 C-106.82141158 35.1756194 -108.29576378 35.16122408 -109.76999283 35.13957977 C-111.84070459 35.11039643 -113.9100716 35.1065499 -115.98095703 35.10839844 C-117.15788116 35.09951599 -118.3348053 35.09063354 -119.5473938 35.08148193 C-123.62663755 35.6824394 -125.67875792 36.89862696 -128.8125 39.5625 C-131.70395963 43.95188957 -132.19359917 47.43496251 -132.21655273 52.63427734 C-132.22341599 53.31480667 -132.23027924 53.995336 -132.23735046 54.69648743 C-132.25554784 56.93068725 -132.2517908 59.16417995 -132.24609375 61.3984375 C-132.25065957 62.96253688 -132.25596633 64.52663426 -132.26197815 66.09072876 C-132.27089582 69.36395431 -132.2685023 72.63693571 -132.25854492 75.91015625 C-132.2470676 80.08861363 -132.26725383 84.26622434 -132.29646206 88.44457054 C-132.31488024 91.67383103 -132.31452032 94.90289082 -132.30882454 98.1321907 C-132.30867195 99.67185273 -132.31466424 101.21152891 -132.32711601 102.75114059 C-132.52093759 114.297659 -132.52093759 114.297659 -127.8125 124.5625 C-123.08913426 128.59026327 -117.83530267 127.98534837 -111.95117188 127.95068359 C-110.85631973 127.95594055 -109.76146759 127.96119751 -108.63343811 127.96661377 C-105.01589678 127.97981295 -101.39879578 127.97107561 -97.78125 127.9609375 C-95.26688553 127.96295825 -92.75252164 127.96586969 -90.23815918 127.96963501 C-84.96911123 127.97405826 -79.70017771 127.96791351 -74.43115234 127.95361328 C-68.34566168 127.93728754 -62.26047258 127.94257639 -56.17498922 127.9590925 C-50.31287796 127.97436356 -44.45088101 127.97272596 -38.58876038 127.9639473 C-36.09766091 127.96194525 -33.60655375 127.96440472 -31.11546326 127.97138596 C-27.63471046 127.97899981 -24.15453769 127.9673963 -20.67382812 127.95068359 C-19.64302628 127.95675629 -18.61222443 127.96282898 -17.55018616 127.96908569 C-10.63393921 127.98187851 -10.63393921 127.98187851 -4.8125 124.5625 C-0.45478033 119.58207807 -0.2311313 115.54709386 -0.27905273 109.23999023 C-0.27043716 108.32055634 -0.26182159 107.40112244 -0.25294495 106.4538269 C-0.23031064 103.42595984 -0.23701816 100.39902001 -0.24609375 97.37109375 C-0.2408578 95.26172104 -0.23458143 93.15235068 -0.22731018 91.04298401 C-0.21691122 86.62725792 -0.2214615 82.21185421 -0.23608398 77.79614258 C-0.25328843 72.13760928 -0.22975287 66.4800898 -0.19459438 60.82166958 C-0.17263766 56.46789319 -0.17405743 52.11436017 -0.1823597 47.76054573 C-0.18317982 45.67414295 -0.17630483 43.58772242 -0.16158867 41.50137138 C-0.1441709 38.58548397 -0.15866144 35.67142885 -0.18139648 32.75561523 C-0.16970428 31.89469772 -0.15801208 31.03378021 -0.14596558 30.14677429 C-0.21388882 25.86574516 -0.43993345 24.06362734 -3.06898499 20.52737427 C-5.85785836 18.53001486 -6.98592379 17.93566623 -10.33984375 17.93139648 C-11.20424072 17.91886337 -12.0686377 17.90633026 -12.95922852 17.89341736 C-14.3406604 17.91330467 -14.3406604 17.91330467 -15.75 17.93359375 C-16.70769287 17.93118179 -17.66538574 17.92876984 -18.65209961 17.92628479 C-20.67273101 17.92726234 -22.69338949 17.94063399 -24.71386719 17.96557617 C-27.80236009 17.99988735 -30.88799116 17.98622959 -33.9765625 17.96679688 C-35.94272048 17.97369557 -37.9088711 17.98336816 -39.875 17.99609375 C-40.79595459 17.99113388 -41.71690918 17.98617401 -42.66577148 17.98106384 C-47.96304239 18.07811341 -51.01911448 18.47955399 -54.8125 22.5625 Z " fill="#3FA3D9" transform="translate(309.8125,237.4375)"/>
<path d="M0 0 C0.83145727 0.00184359 1.66291454 0.00368717 2.51956749 0.00558662 C3.47311623 0.0028373 4.42666496 0.00008797 5.40910912 -0.00274467 C6.45855202 0.00444588 7.50799492 0.01163643 8.58923912 0.01904488 C10.24290741 0.0186068 10.24290741 0.0186068 11.92998314 0.01815987 C15.58780243 0.01955744 19.24542009 0.03513886 22.90320396 0.05078316 C25.43383231 0.05451176 27.96446209 0.05735945 30.49509239 0.0593586 C36.48390652 0.06622455 42.47263359 0.08200053 48.46141279 0.10205758 C55.27873153 0.12439496 62.09605372 0.13540456 68.91339993 0.14544845 C82.93868747 0.16636621 96.96391049 0.20155567 110.98914146 0.24609566 C111.03541888 9.85993984 111.0709872 19.47374586 111.09276581 29.087677 C111.10321681 33.5514932 111.1173999 38.01523338 111.14002037 42.47900581 C111.16170198 46.7843024 111.17370017 51.08952571 111.17889595 55.39487267 C111.18260015 57.0399726 111.18983323 58.68506839 111.20060158 60.33013725 C111.21505445 62.6288727 111.21712204 64.92730279 111.21619225 67.22607613 C111.22063347 68.53623695 111.22507469 69.84639778 111.2296505 71.19626045 C110.98914146 74.24609566 110.98914146 74.24609566 108.98914146 76.24609566 C107.01510429 76.50057125 107.01510429 76.50057125 104.54810143 76.50679207 C103.14735626 76.51741928 103.14735626 76.51741928 101.71831322 76.52826118 C100.69071388 76.52578377 99.66311455 76.52330635 98.60437584 76.52075386 C97.52465004 76.52586479 96.44492424 76.53097572 95.33247948 76.53624153 C91.74922772 76.55018717 88.1661672 76.54917716 84.58289146 76.54687691 C82.10189301 76.55076081 79.62089522 76.55509484 77.1398983 76.55986214 C71.93451344 76.56733485 66.72919638 76.56702524 61.52380943 76.56176949 C56.1672909 76.55639404 50.81096121 76.56344941 45.4544735 76.5822773 C39.00068242 76.60467579 32.54704947 76.61253876 26.09322166 76.60860443 C23.62754836 76.60911951 21.16187147 76.61439194 18.69621849 76.62441635 C15.25526257 76.63668916 11.8148536 76.63004431 8.37390709 76.61841011 C7.34630775 76.62605385 6.31870842 76.63369759 5.25996971 76.64157295 C3.85922455 76.63105148 3.85922455 76.63105148 2.4301815 76.62031746 C1.61607056 76.6204852 0.80195961 76.62065294 -0.03682137 76.62082577 C-1.01396976 76.43533436 -1.01396976 76.43533436 -2.01085854 76.24609566 C-4.45711061 72.57671754 -4.26407163 70.7951742 -4.2696476 66.41967964 C-4.27315224 65.72995064 -4.27665688 65.04022163 -4.28026772 64.32959175 C-4.28906853 62.05035519 -4.28324249 59.77142911 -4.27648354 57.49218941 C-4.27783051 55.90943021 -4.27977131 54.32667143 -4.28228188 52.74391365 C-4.28523077 49.42762498 -4.2809425 46.11144407 -4.27160072 42.79516792 C-4.26019696 38.53891599 -4.2667729 34.28291603 -4.27874565 30.02667332 C-4.28596268 26.75908181 -4.28367722 23.49155034 -4.27849007 20.22395706 C-4.27715361 18.65422791 -4.27880114 17.08449335 -4.28344917 15.51477051 C-4.28851292 13.32407182 -4.28080713 11.13378505 -4.2696476 8.94311714 C-4.26805641 7.69529961 -4.26646523 6.44748207 -4.26482582 5.16185188 C-3.97347053 1.81685014 -3.49956486 0.42828856 0 0 Z " fill="#3DA2D9" transform="translate(190.0108585357666,280.75390434265137)"/>
<path d="M0 0 C0.83145727 0.00184359 1.66291454 0.00368717 2.51956749 0.00558662 C3.47311623 0.0028373 4.42666496 0.00008797 5.40910912 -0.00274467 C6.45855202 0.00444588 7.50799492 0.01163643 8.58923912 0.01904488 C10.24290741 0.0186068 10.24290741 0.0186068 11.92998314 0.01815987 C15.58780243 0.01955744 19.24542009 0.03513886 22.90320396 0.05078316 C25.43383231 0.05451176 27.96446209 0.05735945 30.49509239 0.0593586 C36.48390652 0.06622455 42.47263359 0.08200053 48.46141279 0.10205758 C57.14265325 0.13050222 65.82391838 0.14100414 74.50519371 0.15367317 C86.66656994 0.1730896 98.82775597 0.21140391 110.98914146 0.24609566 C110.98914146 24.66609566 110.98914146 49.08609566 110.98914146 74.24609566 C110.65914146 74.24609566 110.32914146 74.24609566 109.98914146 74.24609566 C109.98914146 50.15609566 109.98914146 26.06609566 109.98914146 1.24609566 C55.04414146 1.74109566 55.04414146 1.74109566 -1.01085854 2.24609566 C-0.68085854 26.33609566 -0.35085854 50.42609566 -0.01085854 75.24609566 C35.95914146 75.24609566 71.92914146 75.24609566 108.98914146 75.24609566 C108.98914146 75.57609566 108.98914146 75.90609566 108.98914146 76.24609566 C94.55111626 76.31611523 80.1131173 76.36884983 65.67495728 76.40153217 C58.97135944 76.41701418 52.26786698 76.43812894 45.56433678 76.47241402 C39.09991265 76.5049145 32.6355982 76.52292903 26.17109871 76.53072739 C23.69983124 76.53628766 21.22857003 76.54714485 18.75734901 76.56328583 C15.30664724 76.5849361 11.85640368 76.58806776 8.40564537 76.58667183 C7.37490395 76.59745766 6.34416252 76.60824348 5.28218651 76.61935616 C4.34546608 76.61523216 3.40874565 76.61110817 2.44363976 76.60685921 C1.21857688 76.61100728 1.21857688 76.61100728 -0.03123474 76.61523914 C-0.68451059 76.49342179 -1.33778645 76.37160444 -2.01085854 76.24609566 C-4.45711061 72.57671754 -4.26407163 70.7951742 -4.2696476 66.41967964 C-4.27315224 65.72995064 -4.27665688 65.04022163 -4.28026772 64.32959175 C-4.28906853 62.05035519 -4.28324249 59.77142911 -4.27648354 57.49218941 C-4.27783051 55.90943021 -4.27977131 54.32667143 -4.28228188 52.74391365 C-4.28523077 49.42762498 -4.2809425 46.11144407 -4.27160072 42.79516792 C-4.26019696 38.53891599 -4.2667729 34.28291603 -4.27874565 30.02667332 C-4.28596268 26.75908181 -4.28367722 23.49155034 -4.27849007 20.22395706 C-4.27715361 18.65422791 -4.27880114 17.08449335 -4.28344917 15.51477051 C-4.28851292 13.32407182 -4.28080713 11.13378505 -4.2696476 8.94311714 C-4.26805641 7.69529961 -4.26646523 6.44748207 -4.26482582 5.16185188 C-3.97347053 1.81685014 -3.49956486 0.42828856 0 0 Z " fill="#99C8E0" transform="translate(190.0108585357666,280.75390434265137)"/>
<path d="M0 0 C2.31 0.66 4.62 1.32 7 2 C7.13282251 10.90401946 7.26332638 19.80806941 7.39115143 28.71216202 C7.4506218 32.85011671 7.5107872 36.98805844 7.57275391 41.12597656 C7.7027651 49.83895678 7.82106331 58.5518692 7.91566467 67.26531219 C7.96513083 71.64168873 8.03689215 76.01683011 8.1306839 80.39247513 C8.19568559 83.61038373 8.23609254 86.82863583 8.28125 90.046875 C8.31287231 91.19496643 8.34449463 92.34305786 8.3770752 93.52593994 C8.45289808 101.29124392 8.45289808 101.29124392 6.04492188 105.05957031 C5.37009766 105.69991211 4.69527344 106.34025391 4 107 C3.505 108.485 3.505 108.485 3 110 C0.1227072 111.10666685 -2.67358943 111.1255812 -5.7305603 111.12698364 C-6.67818741 111.12980347 -7.62581451 111.13262329 -8.60215759 111.13552856 C-9.63498367 111.13350433 -10.66780975 111.1314801 -11.73193359 111.12939453 C-12.82503342 111.13114685 -13.91813324 111.13289917 -15.0443573 111.13470459 C-18.66240013 111.13911029 -22.28039416 111.13618918 -25.8984375 111.1328125 C-28.41183481 111.133486 -30.92523206 111.13445642 -33.43862915 111.13571167 C-38.70941669 111.13718699 -43.98019153 111.13513512 -49.25097656 111.13037109 C-55.33576692 111.12493467 -61.42052374 111.12668777 -67.50531328 111.1321975 C-73.36685402 111.13729178 -79.22838207 111.13674024 -85.08992386 111.13381577 C-87.58019643 111.13314882 -90.07046985 111.13396683 -92.56074142 111.13629532 C-96.04360972 111.13883666 -99.52641382 111.13495997 -103.00927734 111.12939453 C-104.55244377 111.13243088 -104.55244377 111.13243088 -106.12678528 111.13552856 C-118.68193244 111.09838963 -118.68193244 111.09838963 -121.875 108.4375 C-122.24625 107.963125 -122.6175 107.48875 -123 107 C-122.505 106.01 -122.505 106.01 -122 105 C-121.09852234 105.73049057 -121.09852234 105.73049057 -120.17883301 106.47573853 C-115.52400277 108.7077458 -111.23889907 108.41823022 -106.13867188 108.38818359 C-105.04381973 108.39344055 -103.94896759 108.39869751 -102.82093811 108.40411377 C-99.20339678 108.41731295 -95.58629578 108.40857561 -91.96875 108.3984375 C-89.45438553 108.40045825 -86.94002164 108.40336969 -84.42565918 108.40713501 C-79.15661123 108.41155826 -73.88767771 108.40541351 -68.61865234 108.39111328 C-62.53316168 108.37478754 -56.44797258 108.38007639 -50.36248922 108.3965925 C-44.50037796 108.41186356 -38.63838101 108.41022596 -32.77626038 108.4014473 C-30.28516091 108.39944525 -27.79405375 108.40190472 -25.30296326 108.40888596 C-21.82221046 108.41649981 -18.34203769 108.4048963 -14.86132812 108.38818359 C-13.83052628 108.39425629 -12.79972443 108.40032898 -11.73768616 108.40658569 C-4.8284136 108.41519712 -4.8284136 108.41519712 1 105 C4.70418592 100.62286911 4.432551 96.25111115 4.40405273 90.79101562 C4.41434761 89.41208382 4.41434761 89.41208382 4.42485046 88.0052948 C4.44312459 84.97212196 4.43928043 81.93946598 4.43359375 78.90625 C4.43815488 76.79544913 4.44346025 74.68464976 4.44947815 72.57385254 C4.45841019 68.15220095 4.45598456 63.73072998 4.44604492 59.30908203 C4.43454859 53.64281382 4.45477675 47.97716817 4.48396206 42.31098175 C4.50230625 37.95294231 4.50203524 33.59505261 4.49632454 29.23698425 C4.49617114 27.14779283 4.50223061 25.05859137 4.51461601 22.96943665 C4.52949226 20.04888807 4.51887388 17.12949671 4.50170898 14.20898438 C4.51137695 13.34649582 4.52104492 12.48400726 4.53100586 11.59538269 C4.46771653 6.45332726 3.85036387 3.76390624 0 0 Z " fill="#ACD9F0" transform="translate(304,256)"/>
<path d="M0 0 C13.2 0 26.4 0 40 0 C39.67 2.97 39.34 5.94 39 9 C26.13 9 13.26 9 0 9 C0 6.03 0 3.06 0 0 Z " fill="#94CBE7" transform="translate(262,264)"/>
<path d="M0 0 C0.99 0.495 0.99 0.495 2 1 C-0.4655418 5.80780651 -0.4655418 5.80780651 -2.81371498 6.65221977 C-5.15713952 7.02499675 -7.35724121 7.12589484 -9.7305603 7.12698364 C-10.67818741 7.12980347 -11.62581451 7.13262329 -12.60215759 7.13552856 C-13.63498367 7.13350433 -14.66780975 7.1314801 -15.73193359 7.12939453 C-16.82503342 7.13114685 -17.91813324 7.13289917 -19.0443573 7.13470459 C-22.66240013 7.13911029 -26.28039416 7.13618918 -29.8984375 7.1328125 C-32.41183481 7.133486 -34.92523206 7.13445642 -37.43862915 7.13571167 C-42.70941669 7.13718699 -47.98019153 7.13513512 -53.25097656 7.13037109 C-59.33576692 7.12493467 -65.42052374 7.12668777 -71.50531328 7.1321975 C-77.36685402 7.13729178 -83.22838207 7.13674024 -89.08992386 7.13381577 C-91.58019643 7.13314882 -94.07046985 7.13396683 -96.56074142 7.13629532 C-100.04360972 7.13883666 -103.52641382 7.13495997 -107.00927734 7.12939453 C-108.55244377 7.13243088 -108.55244377 7.13243088 -110.12678528 7.13552856 C-122.68193244 7.09838963 -122.68193244 7.09838963 -125.875 4.4375 C-126.24625 3.963125 -126.6175 3.48875 -127 3 C-126.67 2.34 -126.34 1.68 -126 1 C-125.40691544 1.48666641 -124.81383087 1.97333282 -124.20277405 2.4747467 C-119.43874763 4.74351337 -114.96969694 4.42599374 -109.75561523 4.40405273 C-108.62014252 4.41091599 -107.4846698 4.41777924 -106.31478882 4.42485046 C-102.56259653 4.44314805 -98.81082107 4.43927723 -95.05859375 4.43359375 C-92.45215213 4.43815345 -89.84571172 4.44345839 -87.23927307 4.44947815 C-81.77772023 4.45950195 -76.31628585 4.45621277 -70.85473633 4.44604492 C-64.54308979 4.43455405 -58.23186769 4.44865768 -51.92027706 4.4754414 C-45.84350444 4.50026199 -39.76692781 4.50277832 -33.69011116 4.49632454 C-31.10607255 4.4961709 -28.52202592 4.50225049 -25.93801689 4.51461601 C-22.33001736 4.52945117 -18.72295976 4.51890353 -15.11499023 4.50170898 C-14.04319016 4.51137695 -12.97139008 4.52104492 -11.86711121 4.53100586 C-6.17610576 4.5835188 -6.17610576 4.5835188 -1.30531311 1.96864319 C-0.87455978 1.31899094 -0.44380646 0.66933868 0 0 Z " fill="#7DBBDE" transform="translate(308,360)"/>
<path d="M0 0 C0.99 0.495 0.99 0.495 2 1 C2.33 24.43 2.66 47.86 3 72 C38.97 72 74.94 72 112 72 C112 72.33 112 72.66 112 73 C97.54467189 73.02333012 83.08934669 73.04091332 68.63400364 73.05181217 C61.92258132 73.05697489 55.21117068 73.06401713 48.49975586 73.07543945 C42.02886264 73.08626565 35.55798158 73.09227626 29.08708 73.09487724 C26.61221055 73.09673198 24.1373418 73.1003535 21.66247749 73.10573006 C18.20929627 73.11293693 14.75616599 73.11399109 11.30297852 73.11352539 C10.26864182 73.11712067 9.23430511 73.12071594 8.16862488 73.12442017 C7.23327911 73.1230455 6.29793335 73.12167084 5.33424377 73.12025452 C4.5166134 73.12117631 3.69898302 73.1220981 2.85657597 73.12304783 C1 73 1 73 0 72 C-0.09436529 69.76070114 -0.11742327 67.5183825 -0.11352539 65.27709961 C-0.11367142 64.5746965 -0.11381744 63.8722934 -0.1139679 63.14860535 C-0.11326872 60.81648722 -0.10547617 58.484448 -0.09765625 56.15234375 C-0.09579208 54.53951562 -0.09436818 52.92668693 -0.09336853 51.31385803 C-0.08954323 47.06084643 -0.07971285 42.80786876 -0.06866455 38.55487061 C-0.05845069 34.2182257 -0.05387096 29.88157533 -0.04882812 25.54492188 C-0.03809059 17.02993231 -0.02101403 8.51497037 0 0 Z " fill="#8BC3E2" transform="translate(187,284)"/>
<path d="M0 0 C15.51 0 31.02 0 47 0 C47 0.33 47 0.66 47 1 C45.75387939 1.00410889 44.50775879 1.00821777 43.22387695 1.01245117 C38.59227362 1.03425367 33.96151846 1.08855515 29.33032227 1.15258789 C27.32747539 1.17575811 25.32450683 1.19016132 23.3215332 1.19555664 C20.43884546 1.20485333 17.55806881 1.24585906 14.67578125 1.29296875 C13.33644279 1.28706978 13.33644279 1.28706978 11.970047 1.28105164 C7.8555889 1.37721021 5.52497613 1.67960489 1.95776367 3.85668945 C-0.86424505 8.38759884 -0.89883302 12.74851404 -1 18 C-2.24574799 18.0154612 -2.24574799 18.0154612 -3.5166626 18.03123474 C-11.34447444 18.12922457 -19.1722111 18.2317412 -26.999897 18.33933926 C-31.02415519 18.39449643 -35.04842073 18.44790482 -39.07275391 18.49731445 C-42.95666491 18.54506441 -46.84048928 18.59741088 -50.72429657 18.65294075 C-52.20582674 18.67331618 -53.68738062 18.69203711 -55.16895294 18.70907402 C-57.24455833 18.73322485 -59.32000139 18.76326432 -61.39550781 18.79467773 C-62.57687317 18.81022202 -63.75823853 18.8257663 -64.97540283 18.84178162 C-67.49787902 18.97373377 -69.59843504 19.2628844 -72 20 C-68.91118064 16.61700737 -66.79070984 16.04202926 -62.13720703 15.79467773 C-60.51086223 15.75270679 -58.88437483 15.71605848 -57.2578125 15.68359375 C-56.3796286 15.66281265 -55.5014447 15.64203156 -54.59664917 15.62062073 C-52.7254525 15.5773166 -50.85420221 15.53627966 -48.98291016 15.49731445 C-46.19809381 15.43902981 -43.41352811 15.37350933 -40.62890625 15.30664062 C-28.08445806 15.01859407 -15.54741357 14.94942501 -3 15 C-3.05220703 14.12988281 -3.05220703 14.12988281 -3.10546875 13.2421875 C-3.13253906 12.46101563 -3.15960938 11.67984375 -3.1875 10.875 C-3.23970703 9.72644531 -3.23970703 9.72644531 -3.29296875 8.5546875 C-3 6 -3 6 0 0 Z " fill="#9DD2EF" transform="translate(255,255)"/>
<path d="M0 0 C-0.94875 0.598125 -1.8975 1.19625 -2.875 1.8125 C-6.13964197 3.81562526 -6.13964197 3.81562526 -8 7 C-8.99 7.33 -9.98 7.66 -11 8 C-11.66 8.66 -12.32 9.32 -13 10 C-13.66 9.67 -14.32 9.34 -15 9 C-15.185625 10.7015625 -15.185625 10.7015625 -15.375 12.4375 C-15.58125 13.613125 -15.7875 14.78875 -16 16 C-16.99 16.495 -16.99 16.495 -18 17 C-18 16.34 -18 15.68 -18 15 C-18.66 15 -19.32 15 -20 15 C-20.0825 16.27875 -20.165 17.5575 -20.25 18.875 C-20.390625 21.0546875 -20.390625 21.0546875 -21 23 C-22.33172174 23.66988015 -23.66515038 24.33637457 -25 25 C-26.10205469 27.04831139 -26.10205469 27.04831139 -26.6875 29.5 C-26.91824219 30.2940625 -27.14898437 31.088125 -27.38671875 31.90625 C-28.24608588 36.24140137 -28.61916919 40.60024601 -29 45 C-29.70495605 45.01458252 -30.40991211 45.02916504 -31.13623047 45.04418945 C-34.38299114 45.11944197 -37.62880876 45.21584374 -40.875 45.3125 C-41.98359375 45.33505859 -43.0921875 45.35761719 -44.234375 45.38085938 C-50.5691991 45.58580957 -56.01323009 46.27964334 -61.98095703 48.46557617 C-64 49 -64 49 -67 48 C-65.10546779 47.35035977 -63.20931351 46.70544885 -61.3125 46.0625 C-59.72888672 45.52302734 -59.72888672 45.52302734 -58.11328125 44.97265625 C-52.16615414 43.1146454 -46.87428187 42.87402079 -40.6875 42.9375 C-39.85154297 42.94201172 -39.01558594 42.94652344 -38.15429688 42.95117188 C-36.10283351 42.96289452 -34.05140727 42.98082797 -32 43 C-31.96463135 42.34547852 -31.9292627 41.69095703 -31.89282227 41.01660156 C-31.23074041 30.21957437 -27.3920324 21.61003271 -21 13 C-20.38125 12.113125 -19.7625 11.22625 -19.125 10.3125 C-14.72361371 5.5227561 -6.70182028 -2.23394009 0 0 Z " fill="#62AED8" transform="translate(139,167)"/>
<path d="M0 0 C-0.66 0.33 -1.32 0.66 -2 1 C-3.97082055 0.18006709 -5.90281371 -0.73381144 -7.8125 -1.6875 C-26.54516907 -10.55978612 -47.63549163 -13.91661752 -68 -9 C-69.66738216 -8.33512487 -71.33405464 -7.6684671 -73 -7 C-74.7615128 -6.58340865 -76.53313133 -6.20714882 -78.3125 -5.875 C-79.19550781 -5.70742187 -80.07851562 -5.53984375 -80.98828125 -5.3671875 C-81.65214844 -5.24601563 -82.31601563 -5.12484375 -83 -5 C-83 -4.34 -83 -3.68 -83 -3 C-90.39449541 0.77981651 -90.39449541 0.77981651 -93.75 2 C-96.13686196 2.88618949 -96.13686196 2.88618949 -97.875 5 C-100 7 -100 7 -103.625 8 C-107.08125579 8.63554298 -107.08125579 8.63554298 -108.4375 11.125 C-108.623125 11.74375 -108.80875 12.3625 -109 13 C-110.65 13 -112.3 13 -114 13 C-85.83522591 -17.98125149 -34.53017065 -20.54944603 0 0 Z " fill="#B6E0F2" transform="translate(296,228)"/>
<path d="M0 0 C11.22 0 22.44 0 34 0 C34 1.65 34 3.3 34 5 C22.45 5 10.9 5 -1 5 C-0.67 3.35 -0.34 1.7 0 0 Z " fill="#41A2D7" transform="translate(265,266)"/>
<path d="M0 0 C4.84659077 0.59104765 8.60748167 1.97944157 13 4 C13 4.66 13 5.32 13 6 C14.11375 6.12375 15.2275 6.2475 16.375 6.375 C20 7 20 7 22 9 C30.95524151 11.95033688 39.8915807 12.51310718 49.25 12.4375 C50.51400635 12.43355225 51.7780127 12.42960449 53.08032227 12.42553711 C62.96512945 12.27431974 71.55436599 10.79662648 81 8 C82.99455552 7.6355012 84.99340805 7.29103242 87 7 C79.2867037 14.7132963 61.04208366 15.29072196 50.5 15.375 C32.65752808 15.17166113 15.17977422 10.52952493 0 1 C0 0.67 0 0.34 0 0 Z " fill="#D1EFF9" transform="translate(197,397)"/>
<path d="M0 0 C4.93003103 2.1911249 9.20240406 5.33734009 12 10 C12.72870472 12.31470912 13.39239518 14.6505947 14 17 C15.25383228 21.44316958 15.25383228 21.44316958 18 25 C21.53365061 32.23637541 21.67387683 40.09432445 22 48 C20.33831592 45.03591489 19.37799447 42.03286767 18.45361328 38.77197266 C14.81164226 26.04505113 9.27525491 14.38928661 1.25 3.8203125 C0 2 0 2 0 0 Z " fill="#8AC7E4" transform="translate(331,246)"/>
<path d="M0 0 C0.33 0 0.66 0 1 0 C1 3.63 1 7.26 1 11 C0.34 11 -0.32 11 -1 11 C-1.10483203 26.69899936 -1.17415915 42.33755566 0 58 C-8.24390679 45.63413982 -5.47667464 23.90638578 -3 10 C-2.16599643 6.5951602 -1.21214262 3.28894699 0 0 Z " fill="#88C3E3" transform="translate(154,283)"/>
<path d="M0 0 C1.3357457 3.77371512 0.72408671 6.85831347 0.0625 10.75 C-0.13214844 11.92046875 -0.32679687 13.0909375 -0.52734375 14.296875 C-0.76130859 15.63492188 -0.76130859 15.63492188 -1 17 C-2.05743408 17.02187378 -2.05743408 17.02187378 -3.13623047 17.04418945 C-6.38299114 17.11944197 -9.62880876 17.21584374 -12.875 17.3125 C-14.53789063 17.34633789 -14.53789063 17.34633789 -16.234375 17.38085938 C-22.5691991 17.58580957 -28.01323009 18.27964334 -33.98095703 20.46557617 C-36 21 -36 21 -39 20 C-37.10546779 19.35035977 -35.20931351 18.70544885 -33.3125 18.0625 C-32.25675781 17.70285156 -31.20101562 17.34320313 -30.11328125 16.97265625 C-24.16615414 15.1146454 -18.87428187 14.87402079 -12.6875 14.9375 C-11.85154297 14.94201172 -11.01558594 14.94652344 -10.15429688 14.95117188 C-8.10283351 14.96289452 -6.05140727 14.98082797 -4 15 C-3.67 11.7 -3.34 8.4 -3 5 C-2.34 5 -1.68 5 -1 5 C-0.67 3.35 -0.34 1.7 0 0 Z " fill="#9FD2E8" transform="translate(111,195)"/>
<path d="M0 0 C4.76394335 7.14591503 5.42706505 16.60105402 5 25 C5.82242187 25.03738281 6.64484375 25.07476562 7.4921875 25.11328125 C14.73479187 25.53980876 21.1665378 26.54735781 28 29 C28 29.33 28 29.66 28 30 C26.7625 30.04125 25.525 30.0825 24.25 30.125 C23.55390625 30.14820313 22.8578125 30.17140625 22.140625 30.1953125 C20 30 20 30 18.15625 29.0625 C15.24429042 27.62762137 12.45647653 27.32390671 9.25 26.875 C8.07953125 26.70742187 6.9090625 26.53984375 5.703125 26.3671875 C4.81109375 26.24601562 3.9190625 26.12484375 3 26 C2.08233635 21.74051123 1.64527821 17.54286726 1.28125 13.20703125 C1.118722 10.9619771 1.118722 10.9619771 0 9 C-0.06950541 7.45976004 -0.08452357 5.91665012 -0.0625 4.375 C-0.05347656 3.55773437 -0.04445313 2.74046875 -0.03515625 1.8984375 C-0.02355469 1.27195313 -0.01195312 0.64546875 0 0 Z " fill="#81C1E3" transform="translate(389,165)"/>
<path d="M0 0 C0 4.10261844 -1.88449781 7.04028302 -3.6875 10.625 C-8.70979761 20.92221245 -12.32074934 31.63412449 -14 43 C-14.33 43 -14.66 43 -15 43 C-15.80859783 24.89639309 -15.80859783 24.89639309 -11 17 C-10.00518124 15.99484546 -9.00523549 14.99473695 -8 14 C-5.51740926 9.9080056 -3.59830987 5.78647894 -3 1 C-2.01 0.67 -1.02 0.34 0 0 Z " fill="#58A6D3" transform="translate(156,256)"/>
<path d="M0 0 C6.90342024 5.63544509 13.58731999 11.56867293 17 20 C17 20.66 17 21.32 17 22 C13.65134543 20.88378181 13.28433855 20.32525771 11.4375 17.5 C9.68380605 14.74463406 9.68380605 14.74463406 7 13 C7 12.01 7 11.02 7 10 C6.34 10 5.68 10 5 10 C4.67 8.68 4.34 7.36 4 6 C2.68 6 1.36 6 0 6 C0 4.02 0 2.04 0 0 Z " fill="#93C9E4" transform="translate(315,243)"/>
<path d="M0 0 C2.875 0.1875 2.875 0.1875 6 1 C6.309375 1.78375 6.61875 2.5675 6.9375 3.375 C7.71626429 6.0581458 7.71626429 6.0581458 9.66796875 6.99609375 C11.42032165 7.72711522 13.20891504 8.36980344 15 9 C15 8.34 15 7.68 15 7 C15.66 7 16.32 7 17 7 C17 8.65 17 10.3 17 12 C18.32 12.33 19.64 12.66 21 13 C21.33 14.65 21.66 16.3 22 18 C12.95546158 14.90882864 5.80023609 7.36786747 0 0 Z " fill="#5CAFD9" transform="translate(175,379)"/>
<path d="M0 0 C0.66 0.33 1.32 0.66 2 1 C1.01 1.33 0.02 1.66 -1 2 C-1.309375 2.61875 -1.61875 3.2375 -1.9375 3.875 C-3.51338533 7.02677065 -5.81527243 8.42674472 -8.9375 9.9375 C-11.17789676 10.99393609 -11.17789676 10.99393609 -13.4375 13.0625 C-16.08871521 15.06707735 -17.74294429 15.62776506 -21 16 C-17.41119288 11.27644625 -13.86270798 8.25350924 -8.8125 5.1875 C-8.18408203 4.79369141 -7.55566406 4.39988281 -6.90820312 3.99414062 C-4.64180011 2.58097168 -2.39017504 1.19508752 0 0 Z " fill="#8FCBE8" transform="translate(70,216)"/>
<path d="M0 0 C0.65355469 0.58007812 0.65355469 0.58007812 1.3203125 1.171875 C7.84572789 7.43709373 7.84572789 7.43709373 16 10 C16 10.66 16 11.32 16 12 C16.99 11.67 17.98 11.34 19 11 C18.67 12.32 18.34 13.64 18 15 C18.66 15 19.32 15 20 15 C20.33 15.99 20.66 16.98 21 18 C12.69943895 15.40607467 5.51639884 8.51404544 0 2 C0 1.34 0 0.68 0 0 Z " fill="#92C9E6" transform="translate(44,323)"/>
<path d="M0 0 C-1.423125 0.8971875 -1.423125 0.8971875 -2.875 1.8125 C-6.13964197 3.81562526 -6.13964197 3.81562526 -8 7 C-8.99 7.33 -9.98 7.66 -11 8 C-11.66 8.66 -12.32 9.32 -13 10 C-13.66 9.67 -14.32 9.34 -15 9 C-15.33 10.32 -15.66 11.64 -16 13 C-17.32 12.67 -18.64 12.34 -20 12 C-6.30215827 -2.10071942 -6.30215827 -2.10071942 0 0 Z " fill="#8EC6E3" transform="translate(139,167)"/>
<path d="M0 0 C0.33 0 0.66 0 1 0 C1.23333441 4.51995679 1.37476427 9.03835918 1.5 13.5625 C1.56703125 14.83931641 1.6340625 16.11613281 1.703125 17.43164062 C1.89498867 26.66507955 1.89498867 26.66507955 -0.67578125 30.49951172 C-2.7408654 32.42714709 -4.40898447 33.86985719 -7 35 C-9.26367188 34.65844727 -9.26367188 34.65844727 -11 34 C-9.8553125 33.4121875 -9.8553125 33.4121875 -8.6875 32.8125 C-5.74308242 30.82673 -4.72532946 29.03986619 -3 26 C-2.34 26 -1.68 26 -1 26 C-0.67 17.42 -0.34 8.84 0 0 Z " fill="#72B9DE" transform="translate(311,330)"/>
<path d="M0 0 C0 0.33 0 0.66 0 1 C-1.65 1 -3.3 1 -5 1 C-5.33 1.99 -5.66 2.98 -6 4 C-8.546875 5.1328125 -8.546875 5.1328125 -11.75 6.125 C-12.79671875 6.45757812 -13.8434375 6.79015625 -14.921875 7.1328125 C-17.60718672 7.88933433 -20.25667164 8.50213671 -23 9 C-19.82676019 5.54714471 -16.30241718 4.09476253 -12.0625 2.25 C-11.34642578 1.92128906 -10.63035156 1.59257813 -9.89257812 1.25390625 C-9.19712891 0.94839844 -8.50167969 0.64289063 -7.78515625 0.328125 C-7.15488525 0.0487207 -6.52461426 -0.23068359 -5.87524414 -0.51855469 C-3.59636292 -1.10362874 -2.20754781 -0.7298386 0 0 Z " fill="#99CFE7" transform="translate(253,95)"/>
<path d="M0 0 C0 4.26308255 -2.47727959 6.11692552 -5.25 9.0625 C-5.74113281 9.60455078 -6.23226563 10.14660156 -6.73828125 10.70507812 C-9.26949754 13.43541676 -11.48946736 15.65429582 -15 17 C-14.10177882 15.32332046 -13.18078439 13.65882367 -12.25 12 C-11.73953125 11.071875 -11.2290625 10.14375 -10.703125 9.1875 C-10.14109375 8.465625 -9.5790625 7.74375 -9 7 C-7.68 7 -6.36 7 -5 7 C-5 5.35 -5 3.7 -5 2 C-4.360625 1.855625 -3.72125 1.71125 -3.0625 1.5625 C-1.02454854 1.18992819 -1.02454854 1.18992819 0 0 Z " fill="#8AC5E2" transform="translate(326,370)"/>
<path d="M0 0 C-3.13788199 4.76958063 -5.63292229 5.50914508 -11 7 C-12.49743888 8.98567734 -12.49743888 8.98567734 -13 11 C-14.65 11 -16.3 11 -18 11 C-15.1687895 7.99183885 -12.23194142 5.26448359 -9 2.6875 C-8.360625 2.17574219 -7.72125 1.66398438 -7.0625 1.13671875 C-4.55226529 -0.24676288 -2.82354212 -0.21078526 0 0 Z " fill="#68B4DA" transform="translate(200,230)"/>
<path d="M0 0 C4.84659077 0.59104765 8.60748167 1.97944157 13 4 C13 4.66 13 5.32 13 6 C14.134375 6.12375 15.26875 6.2475 16.4375 6.375 C17.613125 6.58125 18.78875 6.7875 20 7 C20.33 7.66 20.66 8.32 21 9 C15.46640844 8.4943565 11.43969425 7.04383132 6.5625 4.4375 C5.60827148 3.9434668 5.60827148 3.9434668 4.63476562 3.43945312 C3.08505424 2.63546752 1.54181678 1.81902334 0 1 C0 0.67 0 0.34 0 0 Z " fill="#88C4E2" transform="translate(197,397)"/>
<path d="M0 0 C1.70506631 4.1128266 0.17322393 7.11563795 -1.3125 11.125 C-1.76238281 12.36507813 -2.21226562 13.60515625 -2.67578125 14.8828125 C-4 18 -4 18 -6 20 C-5.60146354 13.41727705 -4.86760841 7.02334972 -2 1 C-1.34 0.67 -0.68 0.34 0 0 Z " fill="#79B9DE" transform="translate(468,285)"/>
<path d="M0 0 C0.66 0 1.32 0 2 0 C2.04898438 0.63808594 2.09796875 1.27617187 2.1484375 1.93359375 C2.22320312 2.75988281 2.29796875 3.58617187 2.375 4.4375 C2.44460937 5.26121094 2.51421875 6.08492188 2.5859375 6.93359375 C2.72257812 7.61550781 2.85921875 8.29742187 3 9 C3.66 9.33 4.32 9.66 5 10 C7.1519437 13.22791555 7.20086443 14.28400809 7 18 C7.66 18.33 8.32 18.66 9 19 C8.01 19 7.02 19 6 19 C4.79783666 16.58967749 3.61325022 14.17316521 2.4375 11.75 C1.92413086 10.72712891 1.92413086 10.72712891 1.40039062 9.68359375 C-0.38030356 5.97831091 -1.3058334 3.92128522 0 0 Z " fill="#84C1E0" transform="translate(34,300)"/>
<path d="M0 0 C0.33 0 0.66 0 1 0 C0.41640925 8.31616812 -1.73799414 16.01459326 -4 24 C-4.33 24 -4.66 24 -5 24 C-5.47654599 15.73986956 -4.00758119 7.31819173 0 0 Z " fill="#8DC4DF" transform="translate(35,252)"/>
<path d="M0 0 C1.06541016 0.00902344 2.13082031 0.01804688 3.22851562 0.02734375 C5.84008034 0.05076586 8.45116937 0.08356548 11.0625 0.125 C11.0625 0.455 11.0625 0.785 11.0625 1.125 C10.46187744 1.15005615 9.86125488 1.1751123 9.24243164 1.20092773 C6.53638563 1.3165528 3.83071717 1.43942936 1.125 1.5625 C-0.29329102 1.62147461 -0.29329102 1.62147461 -1.74023438 1.68164062 C-2.63935547 1.72353516 -3.53847656 1.76542969 -4.46484375 1.80859375 C-5.29749756 1.84525146 -6.13015137 1.88190918 -6.98803711 1.91967773 C-8.94088858 1.91867103 -8.94088858 1.91867103 -9.9375 3.125 C-14.03536983 3.72960374 -17.79087101 4.125 -21.9375 4.125 C-15.01136875 -0.49242083 -8.06171077 -0.13010831 0 0 Z " fill="#54A4D0" transform="translate(96.9375,211.875)"/>
<path d="M0 0 C2.1244975 3.54082916 2.46508363 6.94991891 3 11 C3.33 11.33 3.66 11.66 4 12 C4.07244053 14.01964199 4.08377188 16.04167124 4.0625 18.0625 C4.05347656 19.16722656 4.04445313 20.27195312 4.03515625 21.41015625 C4.02355469 22.26480469 4.01195312 23.11945313 4 24 C-0.01371187 16.91697905 -0.30687619 7.9787809 0 0 Z " fill="#91CAE3" transform="translate(29,277)"/>
<path d="M0 0 C0 3.04707921 -0.37905707 4.14524621 -1.6796875 6.80078125 C-2.03160156 7.53103516 -2.38351563 8.26128906 -2.74609375 9.01367188 C-3.11863281 9.77228516 -3.49117187 10.53089844 -3.875 11.3125 C-6.23435722 16.14376329 -8.43991946 20.83531231 -10 26 C-11.05856387 23.28258908 -11.03883965 22.11771139 -10.109375 19.30078125 C-9.66078125 18.31464844 -9.2121875 17.32851563 -8.75 16.3125 C-6.75140843 11.80738751 -5.0905681 7.39133309 -3.7734375 2.64453125 C-3.51820313 2.10183594 -3.26296875 1.55914062 -3 1 C-2.01 0.67 -1.02 0.34 0 0 Z " fill="#BAE4F5" transform="translate(156,256)"/>
<path d="M0 0 C0.66 0.33 1.32 0.66 2 1 C2 1.66 2 2.32 2 3 C2.66 3 3.32 3 4 3 C4.67154933 4.28913487 5.33708859 5.58140204 6 6.875 C6.556875 7.95394531 6.556875 7.95394531 7.125 9.0546875 C8 11 8 11 8 13 C7.01 12.67 6.02 12.34 5 12 C4.71125 11.34 4.4225 10.68 4.125 10 C3.1446618 7.70849401 3.1446618 7.70849401 0.375 7.25 C-0.40875 7.1675 -1.1925 7.085 -2 7 C-2 6.34 -2 5.68 -2 5 C-1.34 5 -0.68 5 0 5 C0 3.35 0 1.7 0 0 Z " fill="#77BADD" transform="translate(454,222)"/>
<path d="M0 0 C0.78375 0.04125 1.5675 0.0825 2.375 0.125 C0.92455729 4.23458767 -1.13610752 7.55758745 -3.625 11.125 C-4.53526797 8.05284561 -4.87788404 5.32819784 -4.625 2.125 C-2.625 0.125 -2.625 0.125 0 0 Z " fill="#6AB8DD" transform="translate(457.625,308.875)"/>
<path d="M0 0 C0.33 0.99 0.66 1.98 1 3 C2.32 2.67 3.64 2.34 5 2 C2.19527484 5.29967665 -1.16918209 7.08459104 -5 9 C-5.99 8.67 -6.98 8.34 -8 8 C-7.34 8 -6.68 8 -6 8 C-5.67 7.01 -5.34 6.02 -5 5 C-4.34 5 -3.68 5 -3 5 C-3 3.68 -3 2.36 -3 1 C-2.01 0.67 -1.02 0.34 0 0 Z " fill="#7FC1E3" transform="translate(294,394)"/>
<path d="M0 0 C5.08938811 1.59043379 8.87456643 4.7446951 13 8 C10 9 10 9 7.8125 8.0625 C7.214375 7.711875 6.61625 7.36125 6 7 C6 6.34 6 5.68 6 5 C4.35 5 2.7 5 1 5 C1 4.34 1 3.68 1 3 C0.34 3 -0.32 3 -1 3 C-0.67 2.01 -0.34 1.02 0 0 Z " fill="#72B8DC" transform="translate(339,103)"/>
<path d="M0 0 C0 0.33 0 0.66 0 1 C-2.64 1 -5.28 1 -8 1 C-8 1.66 -8 2.32 -8 3 C-9.58086048 3.36504603 -11.16483907 3.71660506 -12.75 4.0625 C-13.63171875 4.25972656 -14.5134375 4.45695313 -15.421875 4.66015625 C-17.98679028 4.99825872 -19.57091639 4.81158635 -22 4 C-15.43257277 -0.72033832 -7.75223924 -0.16150498 0 0 Z " fill="#81BCDA" transform="translate(236,206)"/>
<path d="M0 0 C0.625 1.875 0.625 1.875 1 4 C0.34 4.66 -0.32 5.32 -1 6 C-1.12375 6.66 -1.2475 7.32 -1.375 8 C-2 10 -2 10 -4 11.0625 C-4.66 11.371875 -5.32 11.68125 -6 12 C-6.33 12.99 -6.66 13.98 -7 15 C-7.66 15 -8.32 15 -9 15 C-7.61219205 11.10993227 -5.7847773 8.03441292 -3.375 4.6875 C-2.74335938 3.80449219 -2.11171875 2.92148438 -1.4609375 2.01171875 C-0.97882813 1.34785156 -0.49671875 0.68398437 0 0 Z " fill="#8DC4E0" transform="translate(199,130)"/>
<path d="M0 0 C8.08299944 0.36740907 15.36454007 1.25950761 23 4 C23 4.33 23 4.66 23 5 C21.7625 5.04125 20.525 5.0825 19.25 5.125 C18.20585937 5.15980469 18.20585937 5.15980469 17.140625 5.1953125 C14.66579065 4.96950645 13.20620333 4.11956587 11 3 C9.09514151 2.56901247 7.17643418 2.19607236 5.25 1.875 C4.26515625 1.70742187 3.2803125 1.53984375 2.265625 1.3671875 C1.14414062 1.18542969 1.14414062 1.18542969 0 1 C0 0.67 0 0.34 0 0 Z " fill="#95CBE4" transform="translate(394,190)"/>
<path d="M0 0 C0.99 0.33 1.98 0.66 3 1 C3.68132451 2.66072849 4.34742127 4.327767 5 6 C5.99 6.66 6.98 7.32 8 8 C9.0625 10.375 9.0625 10.375 10 13 C10.65213539 14.34050052 11.31379969 15.67661368 12 17 C8.13944942 14.18626538 5.69643835 11.43084369 3.1875 7.375 C2.58292969 6.41335938 1.97835937 5.45171875 1.35546875 4.4609375 C0 2 0 2 0 0 Z " fill="#A9D8EB" transform="translate(163,362)"/>
<path d="M0 0 C2.125 0.375 2.125 0.375 4 1 C2.04532248 2.33898399 0.0866421 3.67129047 -1.875 5 C-2.96554687 5.7425 -4.05609375 6.485 -5.1796875 7.25 C-8 9 -8 9 -10 9 C-10 8.01 -10 7.02 -10 6 C-9.01 6 -8.02 6 -7 6 C-7 5.34 -7 4.68 -7 4 C-5.824375 3.566875 -5.824375 3.566875 -4.625 3.125 C-1.90328368 2.15087746 -1.90328368 2.15087746 0 0 Z " fill="#80BEE0" transform="translate(436,333)"/>
<path d="M0 0 C0.33 0 0.66 0 1 0 C1.144375 1.093125 1.28875 2.18625 1.4375 3.3125 C1.88288104 6.93122987 1.88288104 6.93122987 3 10 C2.44140625 12.69921875 2.44140625 12.69921875 1.5625 15.6875 C1.27503906 16.68136719 0.98757813 17.67523438 0.69140625 18.69921875 C0.46324219 19.45847656 0.23507812 20.21773438 0 21 C-0.33 21 -0.66 21 -1 21 C-0.67 14.07 -0.34 7.14 0 0 Z " fill="#71B9DF" transform="translate(340,326)"/>
<path d="M0 0 C0 3 0 3 -2.1875 5.48046875 C-3.115625 6.37378906 -4.04375 7.26710938 -5 8.1875 C-5.928125 9.08855469 -6.85625 9.98960937 -7.8125 10.91796875 C-8.534375 11.60503906 -9.25625 12.29210937 -10 13 C-10.66 12.67 -11.32 12.34 -12 12 C-11.525625 11.608125 -11.05125 11.21625 -10.5625 10.8125 C-8.64820367 8.59191626 -8.38733012 6.86624291 -8 4 C-7.236875 3.896875 -6.47375 3.79375 -5.6875 3.6875 C-2.82940576 2.95635961 -1.84257115 2.23048087 0 0 Z " fill="#A6D8EF" transform="translate(452,320)"/>
<path d="M0 0 C3.82257326 1.56982707 6.20138272 3.99870533 9.0625 6.9375 C9.91972656 7.81277344 10.77695312 8.68804687 11.66015625 9.58984375 C12.81837891 10.78287109 12.81837891 10.78287109 14 12 C14.99784251 13.00215285 15.99671595 14.00329487 17 15 C14 15 14 15 12.37426758 13.73071289 C11.80345459 13.1505542 11.2326416 12.57039551 10.64453125 11.97265625 C10.02255859 11.34552734 9.40058594 10.71839844 8.75976562 10.07226562 C8.11716797 9.40904297 7.47457031 8.74582031 6.8125 8.0625 C5.83120117 7.0734668 5.83120117 7.0734668 4.83007812 6.06445312 C0 1.15378975 0 1.15378975 0 0 Z " fill="#B8E3F5" transform="translate(315,230)"/>
<path d="M0 0 C4.97306516 0.49730652 8.63799813 1.55302334 13 4 C13 4.33 13 4.66 13 5 C11.39504433 4.88557539 9.79101881 4.75805306 8.1875 4.625 C7.29417969 4.55539063 6.40085937 4.48578125 5.48046875 4.4140625 C3 4 3 4 0 2 C0 1.34 0 0.68 0 0 Z " fill="#88C4E3" transform="translate(320,95)"/>
<path d="M0 0 C3.62276315 1.3255581 6.63505348 2.94346955 9.8125 5.125 C10.60269531 5.66382813 11.39289063 6.20265625 12.20703125 6.7578125 C12.79871094 7.16773438 13.39039063 7.57765625 14 8 C12.68 8.33 11.36 8.66 10 9 C10 8.34 10 7.68 10 7 C9.01 7 8.02 7 7 7 C7 6.34 7 5.68 7 5 C6.4225 4.896875 5.845 4.79375 5.25 4.6875 C2.67950842 3.90207202 1.06342716 2.69495803 -1 1 C-0.67 0.67 -0.34 0.34 0 0 Z " fill="#82BDDE" transform="translate(425,198)"/>
<path d="M0 0 C0 3.59857954 -0.95830515 5.09451118 -3 8 C-3.66 8 -4.32 8 -5 8 C-5.33 8.99 -5.66 9.98 -6 11 C-8.0625 11.6875 -8.0625 11.6875 -10 12 C-8.52278578 8.54798361 -6.56205999 6.35038064 -3.875 3.75 C-3.15054688 3.04359375 -2.42609375 2.3371875 -1.6796875 1.609375 C-1.12539062 1.07828125 -0.57109375 0.5471875 0 0 Z " fill="#9ACADF" transform="translate(210,118)"/>
<path d="M0 0 C1.65 0 3.3 0 5 0 C4.01 0.495 4.01 0.495 3 1 C3 1.66 3 2.32 3 3 C1.25364835 3.53293835 -0.49727652 4.05090663 -2.25 4.5625 C-3.22453125 4.85253906 -4.1990625 5.14257812 -5.203125 5.44140625 C-7.96243932 5.99249836 -9.3912824 5.93789609 -12 5 C-10.75336669 4.49166409 -9.50250613 3.99368855 -8.25 3.5 C-7.55390625 3.2215625 -6.8578125 2.943125 -6.140625 2.65625 C-4 2 -4 2 0 2 C0 1.34 0 0.68 0 0 Z " fill="#5FABD5" transform="translate(283,401)"/>
<path d="M0 0 C4.67105792 1.55701931 8.08705685 4.08447373 12 7 C11.01 7.495 11.01 7.495 10 8 C8.125 7.2578125 8.125 7.2578125 6 6.125 C5.29875 5.75632813 4.5975 5.38765625 3.875 5.0078125 C3.25625 4.67523438 2.6375 4.34265625 2 4 C1.34 3.67 0.68 3.34 0 3 C0 2.01 0 1.02 0 0 Z " fill="#8BC5E2" transform="translate(296,229)"/>
<path d="M0 0 C0.66 0.99 1.32 1.98 2 3 C1.00200236 6.99199058 -0.55799862 8.82006579 -4 11 C-3.649375 10.2575 -3.29875 9.515 -2.9375 8.75 C-1.95490707 5.8677274 -1.9673198 4.78823655 -3 2 C-2.01 1.34 -1.02 0.68 0 0 Z " fill="#48A4D3" transform="translate(452,313)"/>
<path d="M0 0 C2.875 0.1875 2.875 0.1875 6 1 C7.1875 3.3125 7.1875 3.3125 8 6 C8.95824253 7.36365283 9.94721175 8.70794169 11 10 C7.81326038 8.59698853 5.67778594 6.92234929 3.25 4.4375 C2.63640625 3.81746094 2.0228125 3.19742187 1.390625 2.55859375 C0 1 0 1 0 0 Z " fill="#99CDE6" transform="translate(175,379)"/>
<path d="M0 0 C0.33 0 0.66 0 1 0 C1 3.63 1 7.26 1 11 C0.34 11 -0.32 11 -1 11 C-1.33 11.66 -1.66 12.32 -2 13 C-2.19294408 8.17639811 -1.75747614 4.50353262 0 0 Z " fill="#7CBCDF" transform="translate(154,283)"/>
<path d="M0 0 C0.66 0.33 1.32 0.66 2 1 C1.67 1.99 1.34 2.98 1 4 C1.66 4.66 2.32 5.32 3 6 C-0.3 6 -3.6 6 -7 6 C-4.74259377 3.66475218 -2.7194239 1.81294927 0 0 Z " fill="#7ABEE5" transform="translate(228,104)"/>
<path d="M0 0 C1.98 0.99 3.96 1.98 6 3 C4.35 4.65 2.7 6.3 1 8 C0.67 7.34 0.34 6.68 0 6 C-0.66 5.67 -1.32 5.34 -2 5 C-0.68 4.34 0.64 3.68 2 3 C1.34 3 0.68 3 0 3 C0 2.01 0 1.02 0 0 Z " fill="#6BB7E2" transform="translate(304,385)"/>
<path d="M0 0 C1.30211046 3.90633137 0.47812346 6.19538173 -0.4375 10.1875 C-0.72496094 11.45980469 -1.01242188 12.73210937 -1.30859375 14.04296875 C-1.53675781 15.01878906 -1.76492187 15.99460937 -2 17 C-2.33 17 -2.66 17 -3 17 C-2.88630789 14.54066009 -2.75957349 12.0832091 -2.625 9.625 C-2.5940625 8.92632812 -2.563125 8.22765625 -2.53125 7.5078125 C-2.2265625 2.2265625 -2.2265625 2.2265625 0 0 Z " fill="#AED9EE" transform="translate(144,282)"/>
<path d="M0 0 C-6.14285714 5.57142857 -6.14285714 5.57142857 -11 6 C-6.60180995 0.25791855 -6.60180995 0.25791855 -3.8125 -0.9375 C-2 -1 -2 -1 0 0 Z " fill="#8CC4DF" transform="translate(60,226)"/>
<path d="M0 0 C2.6875 0.0625 2.6875 0.0625 6 1 C7.99364654 3.14304124 9.51532107 5.48392907 11 8 C6.99698968 6.23867546 3.3971023 3.73867517 0 1 C0 0.67 0 0.34 0 0 Z " fill="#92CAE3" transform="translate(304,222)"/>
<path d="M0 0 C0.99 0.33 1.98 0.66 3 1 C3.33 2.65 3.66 4.3 4 6 C4.66 6 5.32 6 6 6 C5.67 7.65 5.34 9.3 5 11 C2.03947516 7.63576723 1.07710178 4.30840713 0 0 Z " fill="#89C2DD" transform="translate(157,350)"/>
<path d="M0 0 C1.134375 0.020625 2.26875 0.04125 3.4375 0.0625 C2.2928125 0.9596875 2.2928125 0.9596875 1.125 1.875 C-0.9108575 3.53209332 -2.7603279 5.16547674 -4.5625 7.0625 C-4.60504356 5.06295254 -4.60330783 3.06208364 -4.5625 1.0625 C-3.5625 0.0625 -3.5625 0.0625 0 0 Z " fill="#83BEDE" transform="translate(258.5625,254.9375)"/>
<path d="M0 0 C0.68707555 2.49064888 1 4.37886292 1 7 C-1.66666667 8.33333333 -4.33333333 9.66666667 -7 11 C-5.63016497 7.83884224 -5.0109362 7.0072908 -2 5 C-1.34786708 2.97536745 -1.34786708 2.97536745 -1 1 C-0.67 0.67 -0.34 0.34 0 0 Z " fill="#489FCE" transform="translate(173,251)"/>
<path d="M0 0 C5.68504055 0.43731081 6.73173127 0.73173127 11 5 C7.37 4.01 3.74 3.02 0 2 C0 1.34 0 0.68 0 0 Z " fill="#80BEDA" transform="translate(274,208)"/>
<path d="M0 0 C2 1.375 2 1.375 4 3 C4 3.66 4 4.32 4 5 C4.66 5 5.32 5 6 5 C6.33 6.32 6.66 7.64 7 9 C4.37098712 7.47793991 2.15634036 6.15634036 0 4 C0 2.68 0 1.36 0 0 Z " fill="#9ACDE7" transform="translate(368,127)"/>
<path d="M0 0 C1.32 0.33 2.64 0.66 4 1 C3.34 3.31 2.68 5.62 2 8 C1.34 8 0.68 8 0 8 C0 5.36 0 2.72 0 0 Z " fill="#57A8D1" transform="translate(459,301)"/>
<path d="M0 0 C0 3.01082766 -0.00485799 5.15673711 -1 8 C-4.0625 9.8125 -4.0625 9.8125 -7 11 C-5.5140084 6.40693504 -3.14985318 3.56430755 0 0 Z " fill="#A3D7ED" transform="translate(173,249)"/>
<path d="M0 0 C3.33717549 1.3809002 5.22301036 2.8201238 7 6 C6.57421875 8.1328125 6.57421875 8.1328125 6 10 C4.99421411 8.71283353 3.99553202 7.42011342 3 6.125 C2.443125 5.40570313 1.88625 4.68640625 1.3125 3.9453125 C0 2 0 2 0 0 Z " fill="#A0CEE5" transform="translate(331,246)"/>
<path d="M0 0 C0.33 0.66 0.66 1.32 1 2 C-3.62730711 3.0448758 -8.28853878 3.51756279 -13 4 C-9.38656695 0.38656695 -4.97659681 -0.29274099 0 0 Z " fill="#9ED3EB" transform="translate(224,219)"/>
<path d="M0 0 C0.66 0.33 1.32 0.66 2 1 C1.360625 1.78375 0.72125 2.5675 0.0625 3.375 C-1.98142313 5.79539281 -1.98142313 5.79539281 -3 8 C-4.65 8 -6.3 8 -8 8 C-5.33333333 5.33333333 -2.66666667 2.66666667 0 0 Z " fill="#95C7E2" transform="translate(219,110)"/>
<path d="M0 0 C1.43861294 0.08746284 2.87597508 0.19565348 4.3125 0.3125 C5.11300781 0.37050781 5.91351563 0.42851562 6.73828125 0.48828125 C9.36272334 1.08206694 10.30820672 1.95780294 12 4 C7.6822542 3.49202991 3.96697886 2.80317221 0 1 C0 0.67 0 0.34 0 0 Z " fill="#9ED2EA" transform="translate(206,402)"/>
<path d="M0 0 C0.82638376 2.89234315 1 4.88742431 1 8 C0.01 8.33 -0.98 8.66 -2 9 C-2.66 8.67 -3.32 8.34 -4 8 C-2.87548273 5.0280615 -1.77706209 2.66559313 0 0 Z " fill="#82BEDF" transform="translate(165,260)"/>
<path d="M0 0 C0.33 0 0.66 0 1 0 C1.20140476 3.62528568 0.85776765 5.86501708 -1 9 C-1.99 9 -2.98 9 -4 9 C-2.94124926 5.59687262 -1.99097846 2.98646769 0 0 Z " fill="#79BADE" transform="translate(40,243)"/>
<path d="M0 0 C1.99954746 -0.04254356 4.00041636 -0.04080783 6 0 C7 1 7 1 7.0625 3.5625 C7.041875 4.366875 7.02125 5.17125 7 6 C1.125 2.25 1.125 2.25 0 0 Z " fill="#48A2D2" transform="translate(312,226)"/>
<path d="M0 0 C1.98 1.65 3.96 3.3 6 5 C5.67 5.66 5.34 6.32 5 7 C3.68 7 2.36 7 1 7 C0.67 4.69 0.34 2.38 0 0 Z " fill="#479ECE" transform="translate(361,121)"/>
<path d="M0 0 C0 4.38968456 -2.12805101 5.76905739 -5 9 C-6.33332095 6.3333581 -5.67102033 4.83319697 -5 2 C-4.360625 1.855625 -3.72125 1.71125 -3.0625 1.5625 C-1.02454854 1.18992819 -1.02454854 1.18992819 0 0 Z " fill="#A2D5ED" transform="translate(326,370)"/>
<path d="M0 0 C0.33 0.66 0.66 1.32 1 2 C0.0390625 3.9453125 0.0390625 3.9453125 -1.375 6.125 C-1.83648437 6.84945313 -2.29796875 7.57390625 -2.7734375 8.3203125 C-3.17820312 8.87460937 -3.58296875 9.42890625 -4 10 C-4.33 10 -4.66 10 -5 10 C-5 8.35 -5 6.7 -5 5 C-4.01 5 -3.02 5 -2 5 C-2 3.68 -2 2.36 -2 1 C-1.34 0.67 -0.68 0.34 0 0 Z " fill="#9ED2E6" transform="translate(332,360)"/>
<path d="M0 0 C0.66 0.33 1.32 0.66 2 1 C0.3125 4 0.3125 4 -2 7 C-4.75 7.375 -4.75 7.375 -7 7 C-4.66666667 4.66666667 -2.33333333 2.33333333 0 0 Z " fill="#91CBE6" transform="translate(189,234)"/>
<path d="M0 0 C2.475 0.99 2.475 0.99 5 2 C5 2.66 5 3.32 5 4 C5.99 4 6.98 4 8 4 C8.33 5.65 8.66 7.3 9 9 C7.87105124 8.06725891 6.74699124 7.12859878 5.625 6.1875 C4.99851562 5.66542969 4.37203125 5.14335937 3.7265625 4.60546875 C2 3 2 3 0 0 Z " fill="#51A1CB" transform="translate(319,232)"/>
<path d="M0 0 C2.91227269 3.28804981 4.49701212 5.59885603 5 10 C3.0625 9.5 3.0625 9.5 1 8 C0.31209578 5.30341548 0.18053536 2.7982981 0 0 Z " fill="#8AC3E0" transform="translate(332,265)"/>
<path d="M0 0 C0.66 0.99 1.32 1.98 2 3 C0.62845496 5.95409701 -0.98863724 8.44008376 -3 11 C-2.53199289 6.94393835 -2.12046792 3.53411321 0 0 Z " fill="#8AC9E6" transform="translate(112,189)"/>
<path d="M0 0 C0.33 0.99 0.66 1.98 1 3 C0.01 3.99 -0.98 4.98 -2 6 C-2 5.34 -2 4.68 -2 4 C-3.65 4.66 -5.3 5.32 -7 6 C-6.34 4.68 -5.68 3.36 -5 2 C-3.35 2 -1.7 2 0 2 C0 1.34 0 0.68 0 0 Z " fill="#67B4DE" transform="translate(123,178)"/>
<path d="M0 0 C-0.66 0 -1.32 0 -2 0 C-2 0.66 -2 1.32 -2 2 C-5.3 2 -8.6 2 -12 2 C-4.86956522 -1.56521739 -4.86956522 -1.56521739 0 0 Z " fill="#56A7D2" transform="translate(264,93)"/>
<path d="M0 0 C1.98 0 3.96 0 6 0 C6.33 1.65 6.66 3.3 7 5 C3.34683329 3.75023244 2.21934164 3.32901247 0 0 Z " fill="#88C3E1" transform="translate(190,392)"/>
<path d="M0 0 C0.99 0.33 1.98 0.66 3 1 C3 2.32 3 3.64 3 5 C2.01 5 1.02 5 0 5 C0 5.66 0 6.32 0 7 C-0.66 7 -1.32 7 -2 7 C-2 6.01 -2 5.02 -2 4 C-1.34 4 -0.68 4 0 4 C0 2.68 0 1.36 0 0 Z " fill="#58AAD7" transform="translate(178,358)"/>
<path d="M0 0 C0.33 0.99 0.66 1.98 1 3 C-0.65 4.65 -2.3 6.3 -4 8 C-4 4.09161134 -2.49432124 2.88405893 0 0 Z " fill="#83C1DE" transform="translate(46,235)"/>
<path d="M0 0 C6.875 3.75 6.875 3.75 8 6 C5.21788056 5.62403791 3.4120716 5.32681541 1.1875 3.5625 C0 2 0 2 0 0 Z " fill="#88C5E1" transform="translate(344,106)"/>
<path d="M0 0 C0.66 0 1.32 0 2 0 C2.33 1.98 2.66 3.96 3 6 C2.01 6.33 1.02 6.66 0 7 C-1.125 2.25 -1.125 2.25 0 0 Z " fill="#69B4D9" transform="translate(34,300)"/>
<path d="M0 0 C0.33 0 0.66 0 1 0 C1.36923077 5.53846154 1.36923077 5.53846154 -0.5 7.875 C-1.2425 8.431875 -1.2425 8.431875 -2 9 C-2.33 8.34 -2.66 7.68 -3 7 C-2.06421005 4.64018187 -1.06652192 2.30368736 0 0 Z " fill="#8FC6E3" transform="translate(160,268)"/>
<path d="M0 0 C2 1.3125 2 1.3125 4 3 C4 3.99 4 4.98 4 6 C2.68 6 1.36 6 0 6 C0 4.02 0 2.04 0 0 Z " fill="#71BADC" transform="translate(315,243)"/>
<path d="M0 0 C2.97 0.495 2.97 0.495 6 1 C5.67 1.99 5.34 2.98 5 4 C3.35 3.67 1.7 3.34 0 3 C0 2.01 0 1.02 0 0 Z " fill="#429FD0" transform="translate(290,211)"/>
<path d="M0 0 C3.36720387 1.39332574 4.9859524 2.9789286 7 6 C4.625 5.8125 4.625 5.8125 2 5 C0.6875 2.4375 0.6875 2.4375 0 0 Z " fill="#87C4E2" transform="translate(352,112)"/>
</svg>
