<?xml version="1.0" standalone="no"?>
<!DOCTYPE svg PUBLIC "-//W3C//DTD SVG 20010904//EN"
 "http://www.w3.org/TR/2001/REC-SVG-20010904/DTD/svg10.dtd">
<svg version="1.0" xmlns="http://www.w3.org/2000/svg"
 width="256.000000pt" height="256.000000pt" viewBox="0 0 256.000000 256.000000"
 preserveAspectRatio="xMidYMid meet">

<g transform="translate(0.000000,256.000000) scale(0.100000,-0.100000)"
fill="#000000" stroke="none">
<path d="M620 2215 l0 -285 -196 0 -196 0 -29 -29 -29 -29 0 -687 0 -687 29
-29 29 -29 196 0 196 0 0 -190 0 -190 870 0 870 0 0 929 0 928 -299 292 -299
291 -571 0 -571 0 0 -285z m1408 -43 l283 -277 -1 -892 0 -893 -820 0 -820 0
0 165 0 165 616 2 616 3 19 24 c18 22 19 49 19 716 0 667 -1 694 -19 716 l-19
24 -616 3 -616 2 0 260 0 260 538 0 537 -1 283 -277z m-138 -311 c14 -27 14
-1325 0 -1352 -10 -19 -30 -19 -828 -19 -623 0 -821 3 -830 12 -17 17 -17
1349 0 1366 9 9 207 12 830 12 798 0 818 0 828 -19z"/>
<path d="M362 1679 l3 -31 650 0 c358 1 667 1 688 1 34 1 37 3 37 31 l0 30
-691 0 -690 0 3 -31z"/>
<path d="M370 1540 l0 -30 690 0 690 0 0 30 0 30 -690 0 -690 0 0 -30z"/>
<path d="M360 1255 l0 -25 231 0 230 0 -3 23 c-3 22 -3 22 -230 25 l-228 2 0
-25z"/>
<path d="M940 1255 l0 -25 405 0 405 0 0 25 0 25 -405 0 -405 0 0 -25z"/>
<path d="M360 1095 l0 -25 230 0 230 0 0 25 0 25 -230 0 -230 0 0 -25z"/>
<path d="M940 1095 l0 -25 405 0 405 0 0 25 0 25 -405 0 -405 0 0 -25z"/>
<path d="M367 973 c-4 -3 -7 -15 -7 -25 0 -17 14 -18 230 -18 l230 0 0 25 0
25 -223 0 c-123 0 -227 -3 -230 -7z"/>
<path d="M940 955 l0 -25 405 0 405 0 0 25 0 25 -405 0 -405 0 0 -25z"/>
<path d="M362 818 c3 -23 3 -23 231 -26 l227 -2 0 25 0 25 -231 0 -230 0 3
-22z"/>
<path d="M940 815 l0 -25 405 0 405 0 0 25 0 25 -405 0 -405 0 0 -25z"/>
<path d="M370 675 l0 -25 225 0 225 0 0 25 0 25 -225 0 -225 0 0 -25z"/>
<path d="M940 675 l0 -25 405 0 405 0 0 25 0 25 -405 0 -405 0 0 -25z"/>
</g>
</svg>
